<?xml version="1.0" encoding="UTF-8"?>
<svg xmlns="http://www.w3.org/2000/svg" xmlns:xlink="http://www.w3.org/1999/xlink" width="50px" height="50px" viewBox="0 0 50 50" version="1.1">
<g id="surface1">
<path style=" stroke:none;fill-rule:nonzero;fill:rgb(0%,0%,0%);fill-opacity:1;" d="M 4.167969 25.257812 C 4.167969 13.609375 13.492188 4.167969 25 4.167969 C 36.503906 4.167969 45.832031 13.609375 45.832031 25.257812 L 45.832031 36.183594 C 45.832031 37.882812 45.835938 39.050781 45.535156 40.074219 C 44.949219 42.078125 43.550781 43.738281 41.6875 44.632812 C 40.734375 45.09375 39.59375 45.273438 37.933594 45.539062 L 37.664062 45.582031 C 37.074219 45.675781 36.570312 45.757812 36.152344 45.800781 C 35.714844 45.84375 35.269531 45.855469 34.816406 45.765625 C 33.320312 45.46875 32.089844 44.402344 31.5625 42.953125 C 31.40625 42.511719 31.347656 42.066406 31.324219 41.625 C 31.296875 41.199219 31.296875 40.679688 31.296875 40.074219 L 31.296875 31.382812 C 31.296875 30.496094 31.296875 29.734375 31.5 29.082031 C 31.964844 27.585938 33.175781 26.453125 34.683594 26.101562 C 35.34375 25.949219 36.09375 26.011719 36.964844 26.082031 L 37.160156 26.097656 L 37.386719 26.113281 C 39.019531 26.246094 40.136719 26.332031 41.085938 26.6875 C 41.753906 26.9375 42.371094 27.28125 42.925781 27.703125 L 42.925781 25.257812 C 42.925781 15.234375 34.898438 7.109375 25 7.109375 C 15.097656 7.109375 7.074219 15.234375 7.074219 25.257812 L 7.074219 27.703125 C 7.628906 27.28125 8.246094 26.9375 8.914062 26.6875 C 9.863281 26.332031 10.976562 26.246094 12.609375 26.113281 L 12.839844 26.097656 L 13.035156 26.082031 C 13.90625 26.011719 14.65625 25.949219 15.316406 26.101562 C 16.824219 26.453125 18.035156 27.585938 18.5 29.082031 C 18.703125 29.734375 18.703125 30.496094 18.703125 31.382812 L 18.703125 40.074219 C 18.703125 40.679688 18.703125 41.199219 18.675781 41.625 C 18.652344 42.066406 18.59375 42.511719 18.433594 42.953125 C 17.910156 44.402344 16.679688 45.46875 15.183594 45.765625 C 14.730469 45.855469 14.285156 45.84375 13.847656 45.800781 C 13.429688 45.757812 12.925781 45.675781 12.335938 45.582031 L 12.066406 45.539062 C 10.402344 45.273438 9.265625 45.09375 8.3125 44.632812 C 6.449219 43.738281 5.050781 42.078125 4.464844 40.074219 C 4.21875 39.230469 4.175781 38.289062 4.167969 37.03125 Z M 4.167969 25.257812 "/>
</g>
</svg>
