<?xml version="1.0" encoding="UTF-8"?>
<svg xmlns="http://www.w3.org/2000/svg" xmlns:xlink="http://www.w3.org/1999/xlink" width="50px" height="50px" viewBox="0 0 50 50" version="1.1">
<g id="surface1">
<path style=" stroke:none;fill-rule:evenodd;fill:rgb(0%,0%,0%);fill-opacity:1;" d="M 25 7.371094 C 15.265625 7.371094 7.371094 15.265625 7.371094 25 C 7.371094 34.734375 15.265625 42.628906 25 42.628906 C 34.734375 42.628906 42.628906 34.734375 42.628906 25 C 42.628906 15.265625 34.734375 7.371094 25 7.371094 Z M 4.167969 25 C 4.167969 13.492188 13.492188 4.167969 25 4.167969 C 36.503906 4.167969 45.832031 13.492188 45.832031 25 C 45.832031 36.503906 36.503906 45.832031 25 45.832031 C 13.492188 45.832031 4.167969 36.503906 4.167969 25 Z M 4.167969 25 "/>
<path style=" stroke:none;fill-rule:evenodd;fill:rgb(0%,0%,0%);fill-opacity:1;" d="M 25 34.082031 C 25.886719 34.082031 26.601562 33.363281 26.601562 32.480469 L 26.601562 23.933594 C 26.601562 23.046875 25.886719 22.328125 25 22.328125 C 24.113281 22.328125 23.398438 23.046875 23.398438 23.933594 L 23.398438 32.480469 C 23.398438 33.363281 24.113281 34.082031 25 34.082031 Z M 25 34.082031 "/>
<path style=" stroke:none;fill-rule:nonzero;fill:rgb(0%,0%,0%);fill-opacity:1;" d="M 27.136719 17.519531 C 27.136719 16.339844 26.179688 15.382812 25 15.382812 C 23.820312 15.382812 22.863281 16.339844 22.863281 17.519531 C 22.863281 18.703125 23.820312 19.65625 25 19.65625 C 26.179688 19.65625 27.136719 18.703125 27.136719 17.519531 Z M 27.136719 17.519531 "/>
</g>
</svg>
