<?xml version="1.0" encoding="UTF-8"?>
<svg xmlns="http://www.w3.org/2000/svg" xmlns:xlink="http://www.w3.org/1999/xlink" width="150px" height="150px" viewBox="0 0 150 150" version="1.1">
<g id="surface1">
<path style=" stroke:none;fill-rule:nonzero;fill:rgb(10.980392%,22.745098%,66.274512%);fill-opacity:1;" d="M 123.804688 52.394531 C 123.804688 51.636719 123.78125 50.894531 123.753906 50.148438 L 123.753906 7.605469 L 112.574219 19.375 C 103.417969 7.582031 89.488281 0.0625 73.890625 0.0625 C 57.652344 0.0625 43.226562 8.210938 34.105469 20.824219 L 52.441406 40.304688 C 54.234375 36.816406 56.789062 33.8125 59.863281 31.539062 C 63.0625 28.910156 67.601562 26.765625 73.878906 26.765625 C 74.632812 26.765625 75.21875 26.855469 75.648438 27.035156 C 83.421875 27.679688 90.160156 32.195312 94.128906 38.742188 L 81.152344 52.382812 C 97.59375 52.316406 116.175781 52.277344 123.804688 52.394531 Z M 123.804688 52.394531 Z M 123.804688 52.394531 "/>
<path style=" stroke:none;fill-rule:nonzero;fill:rgb(25.882354%,52.156866%,95.686275%);fill-opacity:1;" d="M 73.597656 0.0625 C 72.875 0.0625 72.167969 0.0859375 71.460938 0.113281 L 30.980469 0.113281 L 42.175781 11.867188 C 30.96875 21.503906 23.804688 36.148438 23.804688 52.546875 C 23.804688 69.617188 31.554688 84.785156 43.554688 94.371094 L 62.085938 75.097656 C 58.765625 73.210938 55.910156 70.527344 53.746094 67.292969 C 51.246094 63.929688 49.207031 59.15625 49.207031 52.5625 C 49.207031 51.765625 49.292969 51.148438 49.464844 50.699219 C 50.074219 42.527344 54.371094 35.441406 60.597656 31.269531 L 73.570312 44.914062 C 73.523438 27.613281 73.472656 8.09375 73.597656 0.0625 Z M 73.597656 0.0625 Z M 73.597656 0.0625 "/>
<path style=" stroke:none;fill-rule:nonzero;fill:rgb(67.058825%,67.058825%,67.058825%);fill-opacity:1;" d="M 23.816406 52.546875 C 23.816406 53.304688 23.839844 54.050781 23.863281 54.792969 L 23.863281 97.335938 L 35.046875 85.582031 C 44.203125 97.363281 58.128906 104.882812 73.730469 104.882812 C 89.964844 104.882812 104.394531 96.734375 113.511719 84.117188 L 95.179688 64.636719 C 93.382812 68.128906 90.832031 71.128906 87.757812 73.402344 C 84.558594 76.03125 80.015625 78.175781 73.742188 78.175781 C 72.984375 78.175781 72.398438 78.085938 71.972656 77.90625 C 64.195312 77.265625 57.457031 72.746094 53.492188 66.203125 L 66.46875 52.5625 C 50.023438 52.625 31.445312 52.664062 23.816406 52.546875 Z M 23.816406 52.546875 Z M 23.816406 52.546875 "/>
<path style=" stroke:none;fill-rule:nonzero;fill:rgb(65.098041%,65.098041%,65.098041%);fill-opacity:1;" d="M 32.238281 125.210938 C 31.019531 125.210938 29.933594 125.453125 28.96875 125.941406 C 28.003906 126.414062 27.183594 127.09375 26.515625 127.96875 C 25.855469 128.855469 25.34375 129.917969 24.988281 131.175781 C 24.644531 132.421875 24.476562 133.820312 24.476562 135.359375 L 24.476562 139.800781 C 24.476562 141.351562 24.644531 142.753906 24.988281 143.996094 C 25.34375 145.242188 25.84375 146.308594 26.5 147.191406 C 27.148438 148.078125 27.941406 148.746094 28.859375 149.21875 C 29.785156 149.695312 30.824219 149.925781 31.96875 149.925781 C 33.15625 149.925781 34.191406 149.746094 35.082031 149.386719 C 35.988281 149.027344 36.742188 148.5 37.339844 147.820312 C 37.953125 147.128906 38.414062 146.292969 38.746094 145.304688 C 39.074219 144.332031 39.28125 143.214844 39.34375 141.96875 L 36.4375 141.96875 C 36.363281 142.933594 36.242188 143.753906 36.058594 144.433594 C 35.875 145.101562 35.621094 145.664062 35.277344 146.101562 C 34.949219 146.539062 34.496094 146.847656 33.960938 147.0625 C 33.421875 147.257812 32.765625 147.359375 31.984375 147.359375 C 31.140625 147.359375 30.433594 147.167969 29.847656 146.78125 C 29.261719 146.382812 28.785156 145.84375 28.417969 145.164062 C 28.0625 144.484375 27.796875 143.675781 27.636719 142.765625 C 27.476562 141.855469 27.40625 140.867188 27.40625 139.800781 L 27.40625 135.320312 C 27.40625 134.191406 27.503906 133.152344 27.6875 132.230469 C 27.882812 131.304688 28.1875 130.523438 28.578125 129.867188 C 28.980469 129.214844 29.480469 128.710938 30.089844 128.367188 C 30.699219 128.007812 31.421875 127.828125 32.261719 127.828125 C 32.972656 127.828125 33.570312 127.941406 34.070312 128.160156 C 34.570312 128.367188 34.996094 128.699219 35.328125 129.148438 C 35.65625 129.585938 35.914062 130.148438 36.097656 130.832031 C 36.28125 131.511719 36.390625 132.332031 36.460938 133.28125 L 39.367188 133.28125 C 39.320312 131.984375 39.125 130.832031 38.78125 129.828125 C 38.453125 128.828125 37.976562 127.980469 37.378906 127.300781 C 36.78125 126.621094 36.046875 126.09375 35.191406 125.75 C 34.328125 125.390625 33.351562 125.210938 32.238281 125.210938 Z M 103.246094 125.210938 C 102.027344 125.210938 100.941406 125.453125 99.976562 125.941406 C 99.011719 126.414062 98.195312 127.09375 97.523438 127.96875 C 96.863281 128.855469 96.351562 129.917969 95.996094 131.175781 C 95.65625 132.421875 95.484375 133.820312 95.484375 135.359375 L 95.484375 139.800781 C 95.484375 141.351562 95.65625 142.753906 95.996094 143.996094 C 96.351562 145.242188 96.863281 146.308594 97.511719 147.191406 C 98.15625 148.078125 98.949219 148.746094 99.867188 149.21875 C 100.792969 149.695312 101.832031 149.925781 102.980469 149.925781 C 104.164062 149.925781 105.199219 149.746094 106.089844 149.386719 C 106.996094 149.027344 107.75 148.5 108.363281 147.820312 C 108.972656 147.128906 109.4375 146.292969 109.765625 145.304688 C 110.09375 144.332031 110.304688 143.214844 110.363281 141.96875 L 107.457031 141.96875 C 107.386719 142.933594 107.261719 143.753906 107.082031 144.433594 C 106.898438 145.101562 106.640625 145.664062 106.300781 146.101562 C 105.957031 146.539062 105.53125 146.847656 104.980469 147.0625 C 104.445312 147.257812 103.785156 147.359375 103.003906 147.359375 C 102.160156 147.359375 101.453125 147.167969 100.867188 146.78125 C 100.28125 146.382812 99.804688 145.84375 99.4375 145.164062 C 99.085938 144.484375 98.816406 143.675781 98.65625 142.765625 C 98.5 141.855469 98.425781 140.867188 98.425781 139.800781 L 98.425781 135.320312 C 98.425781 134.191406 98.523438 133.152344 98.707031 132.230469 C 98.902344 131.304688 99.207031 130.523438 99.597656 129.867188 C 99.988281 129.214844 100.5 128.710938 101.109375 128.367188 C 101.722656 128.007812 102.441406 127.828125 103.285156 127.828125 C 103.992188 127.828125 104.589844 127.941406 105.089844 128.160156 C 105.589844 128.367188 106.019531 128.699219 106.347656 129.148438 C 106.691406 129.585938 106.945312 130.148438 107.117188 130.832031 C 107.289062 131.511719 107.410156 132.332031 107.472656 133.28125 L 110.375 133.28125 C 110.328125 131.984375 110.132812 130.832031 109.789062 129.828125 C 109.449219 128.828125 108.984375 127.980469 108.386719 127.300781 C 107.789062 126.621094 107.054688 126.09375 106.203125 125.75 C 105.335938 125.390625 104.359375 125.210938 103.246094 125.210938 Z M 48.804688 125.542969 L 41.429688 149.617188 L 44.386719 149.617188 L 46.167969 143.34375 L 53.90625 143.34375 L 55.714844 149.617188 L 58.667969 149.617188 L 51.28125 125.542969 Z M 61.78125 125.542969 L 61.78125 149.617188 L 64.660156 149.617188 L 64.660156 140.199219 L 69.078125 140.199219 C 70.179688 140.199219 71.15625 140.03125 72.007812 139.722656 C 72.863281 139.390625 73.570312 138.914062 74.144531 138.300781 C 74.730469 137.683594 75.171875 136.925781 75.464844 136.015625 C 75.769531 135.101562 75.914062 134.0625 75.914062 132.910156 C 75.914062 131.84375 75.757812 130.855469 75.464844 129.96875 C 75.171875 129.070312 74.730469 128.289062 74.15625 127.632812 C 73.585938 126.980469 72.863281 126.46875 71.996094 126.09375 C 71.144531 125.734375 70.179688 125.542969 69.066406 125.542969 Z M 78.125 125.542969 L 78.125 128.160156 L 84.132812 128.160156 L 84.132812 149.617188 L 87.011719 149.617188 L 87.011719 128.148438 L 93.03125 128.148438 L 93.03125 125.53125 L 78.125 125.53125 Z M 114.246094 125.542969 L 114.246094 149.617188 L 117.125 149.617188 L 117.125 138.492188 L 126.34375 138.492188 L 126.34375 149.617188 L 129.234375 149.617188 L 129.234375 125.542969 L 126.34375 125.542969 L 126.34375 135.886719 L 117.125 135.886719 L 117.125 125.542969 Z M 140.136719 125.542969 L 132.765625 149.617188 L 135.71875 149.617188 L 137.5 143.34375 L 145.238281 143.34375 L 147.046875 149.617188 L 150 149.617188 L 142.613281 125.542969 Z M 64.660156 128.148438 L 69.078125 128.148438 C 69.789062 128.148438 70.375 128.277344 70.875 128.546875 C 71.375 128.816406 71.789062 129.160156 72.09375 129.597656 C 72.425781 130.035156 72.65625 130.546875 72.804688 131.136719 C 72.960938 131.714844 73.035156 132.304688 73.035156 132.921875 C 73.035156 133.601562 72.960938 134.230469 72.804688 134.808594 C 72.65625 135.371094 72.425781 135.859375 72.09375 136.285156 C 71.777344 136.695312 71.375 137.015625 70.875 137.246094 C 70.386719 137.476562 69.789062 137.59375 69.078125 137.59375 L 64.660156 137.59375 Z M 50.035156 129.777344 L 53.160156 140.722656 L 46.925781 140.722656 Z M 141.371094 129.777344 L 144.496094 140.722656 L 138.246094 140.722656 Z M 5.910156 131.394531 C 5.1875 131.394531 4.566406 131.585938 4.039062 131.972656 C 3.527344 132.355469 3.101562 132.882812 2.746094 133.539062 L 2.699219 131.714844 L 0 131.714844 L 0 149.605469 L 2.785156 149.605469 L 2.785156 136.808594 C 3.039062 136.054688 3.417969 135.449219 3.894531 135.015625 C 4.382812 134.578125 5.003906 134.347656 5.761719 134.347656 C 6.007812 134.347656 6.214844 134.359375 6.410156 134.386719 C 6.59375 134.398438 6.800781 134.421875 7.019531 134.460938 L 7.007812 131.613281 C 6.96875 131.585938 6.898438 131.574219 6.800781 131.546875 C 6.714844 131.511719 6.617188 131.484375 6.519531 131.472656 C 6.421875 131.457031 6.300781 131.433594 6.1875 131.421875 C 6.089844 131.40625 5.992188 131.394531 5.910156 131.394531 Z M 15.269531 131.394531 C 14.464844 131.394531 13.683594 131.546875 12.925781 131.84375 C 12.171875 132.140625 11.5 132.625 10.914062 133.320312 C 10.339844 133.988281 9.875 134.871094 9.507812 135.964844 C 9.15625 137.042969 8.972656 138.375 8.972656 139.941406 L 8.972656 141.957031 C 8.972656 143.316406 9.117188 144.511719 9.425781 145.511719 C 9.730469 146.511719 10.167969 147.347656 10.730469 148.011719 C 11.304688 148.667969 12 149.144531 12.816406 149.464844 C 13.636719 149.785156 14.550781 149.9375 15.5625 149.9375 C 16.296875 149.9375 16.957031 149.863281 17.53125 149.707031 C 18.117188 149.554688 18.640625 149.347656 19.09375 149.117188 C 19.542969 148.859375 19.933594 148.578125 20.25 148.257812 C 20.582031 147.9375 20.851562 147.601562 21.082031 147.269531 L 19.628906 145.421875 C 19.398438 145.714844 19.152344 146 18.882812 146.242188 C 18.628906 146.488281 18.335938 146.703125 18.019531 146.882812 C 17.699219 147.0625 17.359375 147.203125 16.980469 147.292969 C 16.601562 147.398438 16.175781 147.449219 15.710938 147.449219 C 14.417969 147.449219 13.429688 147.011719 12.746094 146.140625 C 12.0625 145.265625 11.71875 143.882812 11.71875 141.957031 L 11.71875 141.546875 L 21.214844 141.546875 L 21.214844 139.839844 C 21.214844 138.480469 21.105469 137.273438 20.886719 136.21875 C 20.667969 135.167969 20.3125 134.296875 19.835938 133.578125 C 19.347656 132.859375 18.738281 132.320312 17.980469 131.960938 C 17.25 131.574219 16.332031 131.394531 15.269531 131.394531 Z M 15.269531 133.910156 C 15.882812 133.910156 16.382812 134.027344 16.785156 134.257812 C 17.1875 134.488281 17.492188 134.808594 17.726562 135.230469 C 17.96875 135.65625 18.140625 136.15625 18.238281 136.734375 C 18.347656 137.3125 18.421875 137.941406 18.457031 138.632812 L 18.457031 139.03125 L 11.769531 139.03125 C 11.804688 138.03125 11.925781 137.195312 12.109375 136.527344 C 12.292969 135.875 12.550781 135.347656 12.855469 134.960938 C 13.171875 134.566406 13.527344 134.296875 13.941406 134.140625 C 14.34375 133.988281 14.78125 133.910156 15.269531 133.910156 Z M 15.269531 133.910156 "/>
</g>
</svg>
