<?xml version="1.0" encoding="UTF-8"?>
<svg xmlns="http://www.w3.org/2000/svg" xmlns:xlink="http://www.w3.org/1999/xlink" width="50px" height="50px" viewBox="0 0 50 50" version="1.1">
<g id="surface1">
<path style=" stroke:none;fill-rule:nonzero;fill:rgb(0%,0%,0%);fill-opacity:1;" d="M 36.769531 13.230469 C 33.761719 10.207031 29.605469 8.332031 25 8.332031 C 15.792969 8.332031 8.355469 15.792969 8.355469 25 C 8.355469 34.207031 15.792969 41.667969 25 41.667969 C 32.761719 41.667969 39.261719 36.355469 41.105469 29.167969 L 36.769531 29.167969 C 35.050781 34.019531 30.449219 37.5 25 37.5 C 18.09375 37.5 12.5 31.90625 12.5 25 C 12.5 18.09375 18.09375 12.5 25 12.5 C 28.449219 12.5 31.542969 13.9375 33.800781 16.199219 L 27.082031 22.917969 L 41.667969 22.917969 L 41.667969 8.332031 Z M 36.769531 13.230469 "/>
</g>
</svg>
